<?xml version="1.0" encoding="iso-8859-1"?>
<!-- Uploaded to: SVG Repo, www.svgrepo.com, Generator: SVG Repo Mixer Tools -->
<svg version="1.1" id="Layer_1" xmlns="http://www.w3.org/2000/svg" xmlns:xlink="http://www.w3.org/1999/xlink" 
	 viewBox="0 0 512 512" xml:space="preserve">
<path style="fill:#FFD311;" d="M122.182,84.364c16.058,0,29.091,13.033,29.091,29.091s-13.033,29.091-29.091,29.091
	s-29.091-13.033-29.091-29.091S106.124,84.364,122.182,84.364z"/>
<path style="fill:#FBC319;" d="M116.364,113.455c0-11.916,7.191-22.136,17.455-26.632c-3.568-1.563-7.494-2.459-11.636-2.459
	c-16.058,0-29.091,13.033-29.091,29.091s13.033,29.091,29.091,29.091c4.143,0,8.069-0.896,11.636-2.459
	C123.555,135.59,116.364,125.37,116.364,113.455z"/>
<polygon style="fill:#00A84F;" points="320,206.545 320,276.364 215.273,206.545 261.818,165.818 "/>
<polygon style="fill:#36C63F;" points="320,276.364 320,305.455 52.364,305.455 52.364,258.909 162.909,171.636 215.273,206.545 "/>
<path style="fill:#0071BC;" d="M52.364,49.455H320v157.091l-58.182-40.727l-46.545,40.727l-52.364-34.909L52.364,258.909V49.455z
	 M122.182,84.364c-16.058,0-29.091,13.033-29.091,29.091s13.033,29.091,29.091,29.091s29.091-13.033,29.091-29.091
	S138.24,84.364,122.182,84.364z"/>
<polygon style="fill:#595E62;" points="500.364,165.818 500.364,503.273 151.273,503.273 151.273,346.182 192,346.182 192,462.545 
	459.636,462.545 459.636,206.545 360.727,206.545 360.727,165.818 "/>
<path style="fill:#E7ECED;" d="M360.727,206.545v139.636H192h-40.727H11.636V8.727h349.091v157.091V206.545z M320,305.455v-29.091
	v-69.818V49.455H52.364v209.455v46.545H320z"/>
<polygon style="fill:#008E49;" points="320,245.411 238.18,186.501 215.273,206.545 320,276.364 "/>
<polygon style="fill:#00AE4D;" points="320,305.455 320,276.364 215.273,206.545 162.909,171.636 136.436,192.535 307.762,305.455 
	"/>
<path style="fill:#0C61A0;" d="M52.364,49.455v209.455l110.545-87.273l23.273,15.515V49.455H52.364z M122.182,142.545
	c-16.058,0-29.091-13.033-29.091-29.091s13.033-29.091,29.091-29.091s29.091,13.033,29.091,29.091S138.24,142.545,122.182,142.545z"
	/>
<path d="M43.636,314.182h285.091V40.727H43.636V314.182z M61.091,296.727v-33.588l102.251-80.725l147.931,98.621v15.693H61.091z
	 M311.273,260.056l-81.674-54.449l32.818-28.716l48.855,34.198v48.967H311.273z M311.273,58.182v131.601l-50.054-35.037
	l-46.665,40.832l-52.077-34.718l-101.385,80.04V58.182H311.273z"/>
<path d="M369.455,157.091V0H2.909v354.909h139.636V512h366.545V157.091H369.455z M200.727,354.909h168.727V215.273h81.455v238.545
	H200.727V354.909z M20.364,17.455H352v320H20.364V17.455z M491.636,494.545H160V354.909h23.273v116.364h285.091V197.818h-98.909
	v-23.273h122.182V494.545z"/>
<path d="M122.182,151.273c20.852,0,37.818-16.965,37.818-37.818s-16.966-37.818-37.818-37.818s-37.818,16.965-37.818,37.818
	S101.329,151.273,122.182,151.273z M122.182,93.091c11.228,0,20.364,9.136,20.364,20.364s-9.136,20.364-20.364,20.364
	s-20.364-9.136-20.364-20.364S110.954,93.091,122.182,93.091z"/>
<g>
	<rect x="197.818" y="87.273" style="fill:#FFFFFF;" width="81.455" height="17.455"/>
	<rect x="180.364" y="122.182" style="fill:#FFFFFF;" width="23.273" height="17.455"/>
	<rect x="215.273" y="122.182" style="fill:#FFFFFF;" width="23.273" height="17.455"/>
</g>
</svg>